<svg width="24" height="29" viewBox="0 0 24 29" fill="none" xmlns="http://www.w3.org/2000/svg">
<path d="M12 7.75C12.7417 7.75 13.4667 7.53007 14.0834 7.11801C14.7001 6.70596 15.1808 6.12029 15.4646 5.43506C15.7484 4.74984 15.8227 3.99584 15.678 3.26841C15.5333 2.54098 15.1761 1.8728 14.6517 1.34835C14.1272 0.823904 13.459 0.466751 12.7316 0.322057C12.0042 0.177362 11.2502 0.251625 10.565 0.535453C9.87975 0.819282 9.29408 1.29993 8.88202 1.91661C8.46996 2.5333 8.25003 3.25832 8.25003 4C8.25003 4.99456 8.64512 5.94839 9.34838 6.65165C10.0516 7.35491 11.0055 7.75 12 7.75ZM12 1.75C12.445 1.75 12.8801 1.88196 13.2501 2.12919C13.6201 2.37643 13.9085 2.72783 14.0788 3.13896C14.2491 3.5501 14.2936 4.0025 14.2068 4.43895C14.12 4.87541 13.9057 5.27632 13.591 5.59099C13.2764 5.90566 12.8754 6.11995 12.439 6.20677C12.0025 6.29359 11.5501 6.24903 11.139 6.07873C10.7279 5.90843 10.3765 5.62004 10.1292 5.25003C9.88199 4.88002 9.75003 4.44501 9.75003 4C9.75003 3.40326 9.98708 2.83097 10.409 2.40901C10.831 1.98705 11.4033 1.75 12 1.75ZM23.11 15.9275L17.4588 9.52C17.1069 9.12091 16.6741 8.80126 16.1892 8.58229C15.7043 8.36332 15.1783 8.25005 14.6463 8.25H9.35378C8.82181 8.24989 8.29591 8.36297 7.811 8.58172C7.32609 8.80047 6.89327 9.11988 6.54128 9.51875L0.890031 15.9275C0.68008 16.1355 0.51315 16.3828 0.398772 16.6553C0.284394 16.9278 0.224807 17.2201 0.223414 17.5156C0.220601 18.1125 0.454995 18.686 0.875031 19.11C1.29507 19.534 1.86634 19.7738 2.46317 19.7766C3.06001 19.7794 3.63352 19.545 4.05753 19.125L6.69628 17.0088L4.43003 25.615C4.19179 26.1564 4.17632 26.7698 4.38698 27.3226C4.59763 27.8753 5.01747 28.3228 5.55562 28.5683C6.09377 28.8138 6.70694 28.8375 7.26244 28.6343C7.81794 28.4311 8.27108 28.0173 8.52378 27.4825L12 21.5L15.4763 27.4888C15.729 28.0236 16.1821 28.4373 16.7376 28.6406C17.2931 28.8438 17.9063 28.8201 18.4444 28.5746C18.9826 28.3291 19.4024 27.8815 19.6131 27.3288C19.8237 26.7761 19.8083 26.1627 19.57 25.6213L17.3038 17.0125L19.9425 19.125C20.3691 19.5305 20.9376 19.7527 21.5261 19.744C22.1146 19.7353 22.6762 19.4963 23.0906 19.0784C23.505 18.6604 23.7391 18.0967 23.7427 17.5081C23.7463 16.9196 23.5192 16.3531 23.11 15.93V15.9275ZM22.0313 18.03C21.9616 18.0997 21.8789 18.1551 21.7879 18.1928C21.6968 18.2305 21.5992 18.25 21.5007 18.25C21.4021 18.25 21.3045 18.2305 21.2134 18.1928C21.1224 18.1551 21.0397 18.0997 20.97 18.03C20.9511 18.0101 20.9306 17.9917 20.9088 17.975L16.47 14.415C16.347 14.3162 16.196 14.2588 16.0384 14.2508C15.8809 14.2429 15.7248 14.2848 15.5924 14.3706C15.4601 14.4565 15.3582 14.5818 15.3012 14.729C15.2442 14.8761 15.235 15.0374 15.275 15.19L18.1338 26.0563C18.1463 26.0989 18.1617 26.1407 18.18 26.1813C18.2641 26.3616 18.273 26.5679 18.2049 26.7549C18.1368 26.9418 17.9973 27.0941 17.8169 27.1781C17.6366 27.2622 17.4302 27.2711 17.2433 27.203C17.0563 27.1349 16.9041 26.9953 16.82 26.815C16.8109 26.7944 16.8004 26.7743 16.7888 26.755L12.6488 19.625C12.5829 19.5113 12.4882 19.417 12.3744 19.3514C12.2605 19.2858 12.1314 19.2513 12 19.2513C11.8686 19.2513 11.7396 19.2858 11.6257 19.3514C11.5118 19.417 11.4172 19.5113 11.3513 19.625L7.21128 26.7563C7.19964 26.7756 7.1892 26.7956 7.18003 26.8163C7.09599 26.9966 6.94375 27.1362 6.7568 27.2043C6.56985 27.2724 6.3635 27.2634 6.18316 27.1794C6.00281 27.0953 5.86323 26.9431 5.79513 26.7561C5.72704 26.5692 5.73599 26.3629 5.82003 26.1825C5.83833 26.142 5.85379 26.1002 5.86628 26.0575L8.72503 15.1913C8.76442 15.0392 8.75508 14.8786 8.69835 14.7322C8.64161 14.5858 8.54032 14.4608 8.40878 14.375C8.28732 14.295 8.14544 14.2516 8.00003 14.25C7.82914 14.2499 7.66332 14.3081 7.53003 14.415L3.09128 17.975C3.06944 17.9917 3.04896 18.0101 3.03003 18.03C2.8893 18.1707 2.69843 18.2498 2.49941 18.2498C2.30038 18.2498 2.10951 18.1707 1.96878 18.03C1.82805 17.8893 1.74899 17.6984 1.74899 17.4994C1.74899 17.3004 1.82805 17.1095 1.96878 16.9688L2.00128 16.935L7.66628 10.5113C7.87747 10.2719 8.13717 10.0803 8.42811 9.94903C8.71906 9.81778 9.0346 9.74994 9.35378 9.75H14.6463C14.9655 9.74994 15.281 9.81778 15.5719 9.94903C15.8629 10.0803 16.1226 10.2719 16.3338 10.5113L22 16.935L22.0325 16.9688C22.1022 17.0385 22.1574 17.1213 22.195 17.2124C22.2327 17.3035 22.252 17.4011 22.2519 17.4996C22.2518 17.5982 22.2322 17.6958 22.1944 17.7868C22.1565 17.8778 22.1011 17.9604 22.0313 18.03Z" fill="#F21E84"/>
</svg>
